<svg width="10" height="10" viewBox="0 0 10 10" fill="none" xmlns="http://www.w3.org/2000/svg">
<path d="M1.00009 1L3.70843 8.42386C3.72671 8.46334 3.75606 8.4968 3.79299 8.52026C3.82992 8.54372 3.87288 8.55619 3.91676 8.55619C3.96064 8.55619 4.0036 8.54372 4.04053 8.52026C4.07746 8.4968 4.10681 8.46334 4.12509 8.42386L5.58343 5.5368L8.50009 4.09328C8.53999 4.07518 8.57379 4.04613 8.59749 4.00957C8.62119 3.97302 8.63379 3.93049 8.63379 3.88706C8.63379 3.84362 8.62119 3.8011 8.59749 3.76454C8.57379 3.72799 8.53999 3.69893 8.50009 3.68084L1.00009 1Z" stroke="black" stroke-opacity="0.64" stroke-linecap="round" stroke-linejoin="round"/>
</svg>
